<svg xmlns="http://www.w3.org/2000/svg"
  xmlns:xlink="http://www.w3.org/1999/xlink" viewBox="0 0 635.72 87.38">
  <defs>
    <style>.cls-1{isolation:isolate;}.cls-2{fill:#231815;}.cls-3{fill:#ee7b33;}.cls-4{opacity:0.55;fill:url(#linear-gradient);}.cls-10,.cls-11,.cls-12,.cls-4,.cls-5,.cls-6,.cls-7,.cls-9{mix-blend-mode:multiply;}.cls-11,.cls-12,.cls-5,.cls-7{opacity:0.3;}.cls-5{fill:url(#linear-gradient-2);}.cls-6{opacity:0.2;fill:url(#linear-gradient-3);}.cls-7{fill:url(#linear-gradient-4);}.cls-8{fill:#066bae;}.cls-9{opacity:0.6;fill:url(#linear-gradient-5);}.cls-10{opacity:0.4;fill:url(#linear-gradient-6);}.cls-11{fill:url(#linear-gradient-7);}.cls-12{fill:url(#linear-gradient-8);}.cls-13{fill:#4667b0;}</style>
    <linearGradient id="linear-gradient" x1="-804.59" y1="-34.49" x2="-806.5" y2="-46.75" gradientTransform="matrix(1, -0.07, 0.07, 1, 869.02, 25.88)" gradientUnits="userSpaceOnUse">
      <stop offset="0" stop-color="#142c50"/>
      <stop offset="1" stop-color="#fff"/>
    </linearGradient>
    <linearGradient id="linear-gradient-2" x1="-811.1" y1="-33.78" x2="-813.01" y2="-46.05" xlink:href="#linear-gradient"/>
    <linearGradient id="linear-gradient-3" x1="-817.34" y1="-33.08" x2="-819.25" y2="-45.34" xlink:href="#linear-gradient"/>
    <linearGradient id="linear-gradient-4" x1="-823.58" y1="-32.38" x2="-825.49" y2="-44.64" xlink:href="#linear-gradient"/>
    <linearGradient id="linear-gradient-5" x1="2407.78" y1="-110.1" x2="2405.88" y2="-122.36" gradientTransform="matrix(-1, 0.07, -0.07, -1, 2465.51, -247.91)" xlink:href="#linear-gradient"/>
    <linearGradient id="linear-gradient-6" x1="2401.54" y1="-109.4" x2="2399.63" y2="-121.66" gradientTransform="matrix(-1, 0.07, -0.07, -1, 2465.51, -247.91)" xlink:href="#linear-gradient"/>
    <linearGradient id="linear-gradient-7" x1="2395.3" y1="-108.7" x2="2393.39" y2="-120.96" gradientTransform="matrix(-1, 0.07, -0.07, -1, 2465.51, -247.91)" xlink:href="#linear-gradient"/>
    <linearGradient id="linear-gradient-8" x1="2389.06" y1="-107.99" x2="2387.15" y2="-120.26" gradientTransform="matrix(-1, 0.07, -0.07, -1, 2465.51, -247.91)" xlink:href="#linear-gradient"/>
  </defs>
  <title>XYZX</title>
  <g class="cls-1">
    <g id="图层_2" data-name="图层 2">
      <g id="图层_1-2" data-name="图层 1">
        <path class="cls-2" d="M145.26,30.91V28h7.24V20.73h3.17V47.31H152.5V42.45a70.12,70.12,0,0,1-6.9,2.26l-.68-3.06q3.39-.9,7.58-2.26V30.91Zm19.46,15.72q-4.53.1-4.41-4.3V20.73h3.28v8.82q3.39-1.92,6.67-4.07l1.81,2.71q-4.75,2.83-8.48,4.75v8.94q-.12,2.15,1.92,2h.9c1.43.15,2.23-.64,2.38-2.38a29.41,29.41,0,0,0,.45-4.18c1.21.37,2.22.71,3.06,1-.08.61-.23,1.66-.46,3.17-.07.68-.15,1.21-.22,1.58q-.57,3.74-5,3.51Z"/>
        <path class="cls-2" d="M175.58,46.18c-.16-.23-.42-.64-.8-1.25a9.53,9.53,0,0,0-.9-1.13,47.94,47.94,0,0,0,7.46-4.64l1.93,2.15a74.28,74.28,0,0,1-6.68,4.19ZM174.11,26.5V23.78h12.21a8.07,8.07,0,0,0-.56-1.58,12.77,12.77,0,0,0-.57-1.47l3.51-.34c.07.22.18.56.34,1a20.65,20.65,0,0,1,.79,2.37H201V26.5Zm3.16,11.42V29H198v8.94H189.6v5.54c.15,2.42-1.06,3.66-3.62,3.74-.38,0-1,0-1.81.11h-1.81a9,9,0,0,0-.68-2.94h1a9.81,9.81,0,0,0,2,0c1.28.07,1.88-.42,1.81-1.47v-5Zm3.17-6.33v3.73h14.48V31.59ZM199.22,46q-2.26-1.47-6.56-3.73c-.38-.23-.68-.41-.91-.57l1.7-2.26q4.52,2.49,7.46,4.19Z"/>
        <path class="cls-2" d="M203.74,25a18.37,18.37,0,0,0-.45-2.72q6.68-.35,10.18-.9l.56,2.71a31.6,31.6,0,0,1-3.95.45v4h3.73v2.83h-3.73v3l.79-.9a45.18,45.18,0,0,1,3.73,3.05l-1.92,2a31.87,31.87,0,0,0-2.6-2.38v11.2h-3V36.34a30.33,30.33,0,0,1-3.39,6.44l-1-3.28a31.57,31.57,0,0,0,4.19-8.14h-3.85V28.53h4.07V24.8A31.81,31.81,0,0,1,203.74,25Zm9.73,16.4-.23-2.94,10.07-.91V20.5h3.05V37.36L230.1,37l.11,2.82-3.85.34v7.24h-3.05v-6.9ZM219.12,36q-2.37-2.14-4.75-4l1.81-2q1.69,1.24,4.53,3.62c-.08-.07,0,0,.34.23Zm1.36-6.9A59.53,59.53,0,0,0,215.62,25l1.81-2q3,2.27,5.09,4.07Z"/>
        <path class="cls-2" d="M232,28.31V25.59h3.28v-5h2.83v5H241v2.72h-2.82v4.86l2.94-.68c0,1.06,0,2,.11,2.94l-3.05.68v7.81a2.83,2.83,0,0,1-2.94,3.28,8.54,8.54,0,0,0-1.25.11h-1.36a27.5,27.5,0,0,0-.56-2.94h2c.9.07,1.31-.34,1.24-1.25V36.9l-3.39.79-.23-3.16c1-.23,2.26-.46,3.62-.68V28.31Zm9.95-1V24.57h6.56V20.5h2.94v4.07h7.24v2.72h-7.24v3.84h6v2.72a21.42,21.42,0,0,1-5.2,7.8,21.56,21.56,0,0,0,6.9,2.83,31.54,31.54,0,0,0-1.47,2.83,45.16,45.16,0,0,1-7.81-3.73,43.13,43.13,0,0,1-8.48,4c-.23-.31-.61-.87-1.13-1.7a8.1,8.1,0,0,1-.57-.91,27.63,27.63,0,0,0,7.92-3.39,23.62,23.62,0,0,1-4.75-7.47l.9-.33H242.2V31.13h6.33V27.29Zm12.33,6.45h-8.48a19.41,19.41,0,0,0,4.18,6.1A15.93,15.93,0,0,0,254.3,33.74Z"/>
        <path class="cls-2" d="M261.32,30.79V27.74h11.42c.07-1.66.11-4,.11-7.13h3.4L276,27.74h11.42v3.05H276.13Q277.6,40.53,288,44.26a14.66,14.66,0,0,0-2.15,2.82q-9.39-4.06-11.42-12Q272.63,42.79,263,47.42l-1.24-1.69a14.3,14.3,0,0,1-.91-1.14q10.86-4.52,11.54-13.8Z"/>
        <path class="cls-2" d="M290.05,40.41V37.58H302.6v-.79L307.24,34H294.8V31.25h17V34l-5.88,3.62h11v2.83H305.77v3.28q.11,3.62-3.85,3.62h-4.41c-.22-1.06-.45-2-.68-2.94h1.81c.83.07,1.47.11,1.93.11,1.5.15,2.18-.45,2-1.81V40.41Zm.67-8.14V26h17l-.45-.22c1.51-2,2.71-3.77,3.62-5.21l3.28,1c-.3.38-.72.95-1.25,1.7l-2,2.71h5.2v6.23h-2.94V28.76H293.67v3.51Zm4.53-6.45c-.3-.45-.76-1.17-1.36-2.15s-1.17-1.59-1.47-2l3.06-.9c1,1.35,2,2.68,2.94,4Zm7.35-.57a12.43,12.43,0,0,1-.68-1.24c-.38-.53-1-1.55-1.81-3.06l3.06-.56c.9,1.36,1.81,2.75,2.71,4.18Z"/>
        <path class="cls-2" d="M319,40.41V37.58h12.56v-.79L336.2,34H323.75V31.25h17V34l-5.88,3.62h11v2.83H334.73v3.28q.11,3.62-3.85,3.62h-4.41c-.23-1.06-.45-2-.68-2.94h1.81c.83.07,1.47.11,1.92.11,1.51.15,2.19-.45,2-1.81V40.41Zm.68-8.14V26h17l-.45-.22c1.5-2,2.71-3.77,3.62-5.21l3.28,1c-.31.38-.72.95-1.25,1.7l-2,2.71H345v6.23h-2.94V28.76H322.62v3.51Zm4.53-6.45c-.31-.45-.76-1.17-1.36-2.15s-1.17-1.59-1.47-2l3.05-.9c1.06,1.35,2,2.68,2.94,4Zm7.35-.57a12.43,12.43,0,0,1-.68-1.24c-.38-.53-1-1.55-1.81-3.06l3.05-.56c.91,1.36,1.81,2.75,2.72,4.18Z"/>
        <path class="cls-2" d="M350.67,33.74a26.37,26.37,0,0,0-2.82-1.7,32.5,32.5,0,0,0,5.31-10.29l3.17.56A33.74,33.74,0,0,1,354.86,26h5.66V20.39h3.16V26h9.84V29h-9.84v5.55h8.94v2.94h-8.94v6.11H375v2.6h-26.8v-2.6h12.33V37.47h-9.73V34.53h9.73V29h-7A27,27,0,0,1,350.67,33.74Z"/>
        <path class="cls-2" d="M376.92,40.41V37.58h12.55v-.79L394.11,34H381.67V31.25h17V34l-5.88,3.62h11v2.83H392.64v3.28q.11,3.62-3.85,3.62h-4.41c-.22-1.06-.45-2-.68-2.94h1.81c.83.07,1.47.11,1.93.11,1.5.15,2.18-.45,2-1.81V40.41Zm.68-8.14V26h17l-.45-.22c1.51-2,2.71-3.77,3.62-5.21l3.28,1c-.3.38-.72.95-1.24,1.7l-2,2.71h5.2v6.23H400V28.76H380.54v3.51Zm4.52-6.45c-.3-.45-.75-1.17-1.36-2.15s-1.17-1.59-1.47-2l3.06-.9c1,1.35,2,2.68,2.94,4Zm7.35-.57a12.43,12.43,0,0,1-.68-1.24c-.37-.53-1-1.55-1.81-3.06l3.06-.56c.9,1.36,1.81,2.75,2.71,4.18Z"/>
        <path class="cls-2" d="M407.57,43.24l-1.24-3.4q9.5-2.94,18.77-6.44c0,.3,0,.86.12,1.69s.11,1.51.11,1.81Q414.82,40.53,407.57,43.24Zm11.2,3.62c-.23-1.06-.45-2.12-.68-3.17,1.21.08,2.9.11,5.09.11,2.71.23,4-1.09,3.85-4,.15-2,.26-5.61.34-11,.07-1.58.11-2.71.11-3.39H407.12V22.42h23.75Q430.65,33,430.31,41q.1,5.88-6,5.89ZM418.2,34.3l-2.94-1.92q-3.39-2.15-5-3.06l1.92-2.26q4.29,2.39,8.14,4.75Z"/>
        <path class="cls-2" d="M434.49,40.3V37.36h19.68V40.3Zm12.56,6.78a12.19,12.19,0,0,0-.68-3c1.81.07,3.69.11,5.65.11q4,.12,4-2.94a62.37,62.37,0,0,0,.46-7.46H438.22l1.14-13.24h3.28l-.34,3.73h19.11v2.94H442.07l-.34,3.74h18.21q-.1,2.49-.56,8.37-.12,1.59-.12,2.37c0,3.7-2,5.51-6.11,5.43Z"/>
        <path class="cls-2" d="M464.47,29V26.16a50,50,0,0,0,1.92-4.75l2.94.45a11.67,11.67,0,0,0-.57,1.58c-.52,1.36-.9,2.3-1.13,2.83h5A47.4,47.4,0,0,0,474,20.39l3.16.22-.33,1.7q-.57,2.61-1,4h14.93V29H475.1c-.3,1-.64,2-1,3.06h13.8v2.49a20.69,20.69,0,0,1-5.77,7.24,29.09,29.09,0,0,0,8.49,2.49c-.61,1.13-1.14,2.14-1.59,3.05a40.93,40.93,0,0,1-9.61-3.73,69.15,69.15,0,0,1-10.07,4,5.71,5.71,0,0,0-.45-.91,17.14,17.14,0,0,0-1-1.92,38.38,38.38,0,0,0,8.94-2.94,20.21,20.21,0,0,1-4.42-5.89,36.88,36.88,0,0,1-7.91,10.18c-.31-.9-.68-2-1.13-3.16A29.86,29.86,0,0,0,471.82,29Zm19.79,5.66h-9.39a16.17,16.17,0,0,0,4.53,5.54A15.4,15.4,0,0,0,484.26,34.64Zm1-8.37a40.36,40.36,0,0,0-4.19-3.85l1.81-1.81,1.81,1.47c1.29,1,2.19,1.66,2.72,2Z"/>
        <path class="cls-2" d="M494.67,47.42l-2.26-2.26a15,15,0,0,0,2-5.2,38.42,38.42,0,0,0,.57-7.81V21.52h23.07v7.13H498v2.71h5v-2.6h2.83v2.6h4.87v-2.6h2.82v2.6h4.87v2.26h-4.87v2.6h5.89v2.27h-3.4l1.59,2-4.3,2.26a17,17,0,0,0,6.45,1.59c-.61,1.05-1.1,2-1.48,2.71q-9.84-2-12.55-8.59h-2.38v5.77L508,42.78a22.79,22.79,0,0,0-.11,2.49c-.38.15-.94.34-1.7.57a25,25,0,0,0-2.94.9,8.65,8.65,0,0,0-1.92.68,1.13,1.13,0,0,0-.45.23l-1.47-2.15a2.77,2.77,0,0,0,1-2.49V38.49h-2.72A19.16,19.16,0,0,1,494.67,47.42ZM498,33.62l-.12,2.6h5.09v-2.6ZM498,24v2.37h17.19V24Zm7.8,9.61v2.6h4.87v-2.6ZM511,41.43a42.23,42.23,0,0,0,4.86-2.94h-7.47A11.35,11.35,0,0,0,511,41.43Z"/>
        <path class="cls-2" d="M521.7,28.19V25.48h3.06V20.61h2.82v4.87h2.94v2.71h-2.94V33.4l2.94-.8v2.95l-2.94.79V44q.12,3.16-2.94,3.17a22.53,22.53,0,0,1-2.49.11c-.07-.45-.18-1.1-.34-1.92a5,5,0,0,1-.22-1h.56a3.74,3.74,0,0,0,1.25,0c1,.07,1.43-.3,1.36-1.13V37.13a33.11,33.11,0,0,0-3.28.9l-.23-3.28a1.59,1.59,0,0,0,.45-.11c.91-.15,1.92-.38,3.06-.68V28.19Zm13.91,3.17c-2.64.08-3.92-1.17-3.84-3.73V20.5h2.94v3.73q6.56-1.12,12.33-2.6l1,2.49q-6.22,1.47-13.35,2.49v.23c-.15,1.51.56,2.18,2.15,2h6.22c1.36.08,2.15-.45,2.38-1.58a10.78,10.78,0,0,0,.45-2V25c.83.22,1.77.52,2.83.9-.23,1.06-.46,2-.68,2.94q-.79,2.61-4.08,2.49ZM532,47.54V33.4h15V47.54h-2.83V46h-9.27v1.59Zm3-11.66V38.6h9.27V35.88Zm0,5.09v2.72h9.27V41Z"/>
        <path class="cls-2" d="M550.32,40.07v-2.6h19V35.88h3.06v1.59h5.2v2.6h-5.2v3q.23,4.08-4.19,4c-1.06.08-2.49.12-4.3.12-.22-.91-.45-1.89-.68-2.94,1.14.07,2.38.11,3.74.11q2.59.23,2.37-2V40.07h-12c.38.3.91.75,1.59,1.36a29.79,29.79,0,0,1,2.71,2.26l-2.26,1.92q-1-1-3.62-3.28c-.45-.37-.76-.64-.91-.79l1.59-1.47ZM557,35q-4.18.12-4.07-4.19V21.52h20.81v8H556v.68c-.07,1.58.68,2.3,2.27,2.15h12.89q2.72.1,2.94-1.92a4.62,4.62,0,0,1,.12-.8c.15-.75.26-1.35.34-1.81A31.47,31.47,0,0,0,577.58,29c-.08.31-.19.68-.34,1.14a20.69,20.69,0,0,1-.57,2.15c-.52,1.88-2.14,2.79-4.86,2.71Zm-1-10.86v2.94h14.71V24.12Z"/>
        <path class="cls-2" d="M580.75,39.84v-14h10.52V20.39h3.28v5.43h10.52V39.73H601.9V38.26h-7.35v9.39h-3.28V38.26h-7.36v1.58Zm3.16-11.08v6.56h7.36V28.76Zm18,0h-7.35v6.56h7.35Z"/>
        <path class="cls-2" d="M611,40.86a10.8,10.8,0,0,0-2-.79,7.19,7.19,0,0,1-.9-.34,109,109,0,0,0,3-10.75l3.05.91Q612.64,35.54,611,40.86Zm9,5.66q-4.75.1-4.64-4.41V26.5h3.28V41.43c-.08,1.66.72,2.45,2.37,2.37h3.51a2.48,2.48,0,0,0,2.83-2.26c0-.23,0-.64.11-1.24.15-1.06.27-1.89.34-2.49a7.64,7.64,0,0,1,1.58.56,11.42,11.42,0,0,1,1.59.57c-.23,1.66-.49,3.17-.79,4.52q-.57,3.16-5.09,3.06Zm4.41-17.42q-2-2.38-6.34-6.56l2.15-2.15a88,88,0,0,1,6.45,6.22Zm8.37,9.95q-2-4.19-4.75-9.27l2.71-1.47q2,3.61,5,9.16Z"/>
        <path class="cls-3" d="M61.25,39.3c-4.85-3-5.22-8.25-.81-11.79L80.79,11.15a3.42,3.42,0,0,1,3.65-.23,1.46,1.46,0,0,1,.17,2.56L64.27,29.84c-2.5,2-2.29,5,.46,6.67Z"/>
        <path class="cls-3" d="M56,43.49C48,38.61,47.41,29.87,54.69,24L75,7.65a3.42,3.42,0,0,1,3.65-.23A1.46,1.46,0,0,1,78.87,10L58.52,26.34c-5.37,4.32-4.92,10.76,1,14.36Z"/>
        <path class="cls-3" d="M50.82,47.69c-11.19-6.82-12-19-1.87-27.18L69.3,4.15A3.42,3.42,0,0,1,73,3.92a1.46,1.46,0,0,1,.17,2.56L52.78,22.84c-8.25,6.63-7.56,16.52,1.52,22.05Z"/>
        <path class="cls-3" d="M45.61,51.88C31.25,43.13,30.17,27.49,43.2,17L63.55.65A3.42,3.42,0,0,1,67.2.42,1.47,1.47,0,0,1,67.38,3L47,19.34c-11.12,8.94-10.2,22.28,2,29.75Z"/>
        <path class="cls-4" d="M64.53,29.82,60.7,27.49c-4.41,3.54-4,8.83.81,11.79L65,36.49C62.24,34.81,62,31.82,64.53,29.82Z"/>
        <path class="cls-5" d="M58.52,26.34,54.69,24C47.41,29.87,48,38.61,56,43.49l3.47-2.79C53.6,37.1,53.15,30.66,58.52,26.34Z"/>
        <path class="cls-6" d="M52.78,22.84,49,20.51c-10.16,8.17-9.32,20.36,1.87,27.18l3.48-2.8C45.22,39.36,44.53,29.47,52.78,22.84Z"/>
        <path class="cls-7" d="M47,19.34,43.2,17c-13,10.48-12,26.12,2.41,34.87l3.47-2.79C36.83,41.62,35.91,28.28,47,19.34Z"/>
        <path class="cls-8" d="M72.61,25.82c4.86,3,5.22,8.25.81,11.8L53.07,54a3.4,3.4,0,0,1-3.65.23,1.47,1.47,0,0,1-.17-2.56L69.6,35.28c2.49-2,2.28-5-.46-6.66Z"/>
        <path class="cls-8" d="M77.82,21.63c8,4.89,8.63,13.63,1.35,19.49L58.82,57.47a3.4,3.4,0,0,1-3.65.23A1.46,1.46,0,0,1,55,55.14L75.34,38.78c5.37-4.31,4.92-10.75-1-14.36Z"/>
        <path class="cls-8" d="M83,17.44c11.19,6.82,12,19,1.87,27.17L64.57,61a3.42,3.42,0,0,1-3.66.23,1.47,1.47,0,0,1-.17-2.56L81.09,42.28c8.24-6.62,7.56-16.52-1.52-22Z"/>
        <path class="cls-8" d="M88.25,13.25c14.36,8.74,15.44,24.39,2.41,34.86L70.31,64.47a3.4,3.4,0,0,1-3.65.23,1.46,1.46,0,0,1-.18-2.56L86.83,45.78C98,36.84,97,23.5,84.78,16Z"/>
        <path class="cls-9" d="M69.6,35.28l3.82,2.34c4.41-3.55,4-8.84-.81-11.8l-3.47,2.8C71.88,30.29,72.09,33.28,69.6,35.28Z"/>
        <path class="cls-10" d="M75.34,38.78l3.83,2.34c7.28-5.86,6.68-14.6-1.35-19.49l-3.47,2.79C80.26,28,80.71,34.47,75.34,38.78Z"/>
        <path class="cls-11" d="M81.09,42.28l3.82,2.33C95.07,36.45,94.23,24.26,83,17.44l-3.47,2.79C88.65,25.76,89.33,35.66,81.09,42.28Z"/>
        <path class="cls-12" d="M86.83,45.78l3.83,2.33c13-10.47,12-26.12-2.41-34.86L84.78,16C97,23.5,98,36.84,86.83,45.78Z"/>
        <path class="cls-13" d="M25.32,59.07c34.2,2.26,40.42,19.2,40.42,19.2C51.07,62.41,25.32,63.54,25.32,63.54Z"/>
        <path class="cls-13" d="M16.62,66.49C60.26,66,65.19,79,65.19,79c-17.12-12.52-48.57-8.93-48.57-8.93Z"/>
        <path class="cls-13" d="M7.19,74c45.89-3.91,58,6.21,58,6.21-25.74-7.45-58-2-58-2Z"/>
        <path class="cls-13" d="M0,80.19V84H60.91c8.43,7.66,14.75-.19,14.75-.19H136V80.19H73.17c-4.79,7.18-10.35,0-10.35,0Z"/>
        <path class="cls-13" d="M110.92,59C76.72,61.3,70.5,78.24,70.5,78.24c14.67-15.86,40.42-14.73,40.42-14.73Z"/>
        <path class="cls-13" d="M119.62,66.46C76,66,71.05,79,71.05,79,88.17,66.45,119.62,70,119.62,70Z"/>
        <path class="cls-13" d="M129.05,74c-45.89-3.91-58,6.21-58,6.21,25.74-7.45,58-2,58-2Z"/>
        <path class="cls-2" d="M163,61.89l-2.24.62a3.47,3.47,0,0,0-3.3-2.48c-2.44.12-3.73,1.72-3.85,4.79,0,3.11,1.28,4.7,3.73,4.79q2.93.06,3.61-3l2.3.56q-1.12,4.35-5.85,4.29-5.91-.12-6-6.59.12-6.54,6.22-6.72A5.58,5.58,0,0,1,163,61.89Z"/>
        <path class="cls-2" d="M172.16,68.05l2.11.56q-.87,2.92-4.42,2.86c-3-.12-4.6-1.74-4.72-4.85.12-3.23,1.68-4.94,4.66-5.1q4.43.12,4.54,5.16v.56h-7a2.52,2.52,0,0,0,2.49,2.55A2.11,2.11,0,0,0,172.16,68.05Zm-2.37-4.66a2.34,2.34,0,0,0-2.36,2.11h4.66A2.14,2.14,0,0,0,169.79,63.39Z"/>
        <path class="cls-2" d="M184.88,65.19v6h-2.06V65.38c0-1.41-.56-2.12-1.68-2.12a2.29,2.29,0,0,0-2.42,2.18v5.78h-2V61.71h2v1.18a3,3,0,0,1,2.67-1.37Q185,61.4,184.88,65.19Z"/>
        <path class="cls-2" d="M191.75,69.73l.37,1.31a6.77,6.77,0,0,1-1.74.37c-1.53,0-2.28-.73-2.24-2.3V63.39h-1.3V61.71h1.3V59.34l2-1,.06,3.36h1.68l-.06,1.68h-1.62v5.66c0,.62.15.89.56.81A4.22,4.22,0,0,0,191.75,69.73Z"/>
        <path class="cls-2" d="M200.43,68.05l2.11.56q-.87,2.92-4.41,2.86-4.55-.18-4.73-4.85c.12-3.23,1.68-4.94,4.66-5.1q4.42.12,4.54,5.16v.56h-7a2.52,2.52,0,0,0,2.49,2.55A2.11,2.11,0,0,0,200.43,68.05Zm-2.37-4.66a2.35,2.35,0,0,0-2.36,2.11h4.66A2.14,2.14,0,0,0,198.06,63.39Z"/>
        <path class="cls-2" d="M210.85,62.14,210,64a1.94,1.94,0,0,0-1.31-.44q-1.68-.06-1.62,2.61v5.1H205V61.71h2.05v1.36a2.08,2.08,0,0,1,1.87-1.55A2.8,2.8,0,0,1,210.85,62.14Z"/>
        <path class="cls-2" d="M220,60.77v.94h1.93l-.07,1.74H220v7.77h-2.05V63.45H216.5V61.71h1.44v-.88c0-1.78.87-2.67,2.48-2.67a6.59,6.59,0,0,1,2.31.37l-.5,1.62a4.29,4.29,0,0,0-1.37-.25Q219.93,59.84,220,60.77Z"/>
        <path class="cls-2" d="M228.17,61.52q4.29.18,4.48,5-.06,4.84-4.67,5c-2.9-.16-4.44-1.76-4.6-4.79Q223.5,61.64,228.17,61.52ZM228,69.86q2.37-.08,2.43-3.3T228,63.26q-2.49.06-2.55,3.36Q225.55,69.72,228,69.86Z"/>
        <path class="cls-2" d="M240.89,62.14,240,64a1.92,1.92,0,0,0-1.31-.44q-1.68-.06-1.62,2.61v5.1H235V61.71h2.05v1.36A2.09,2.09,0,0,1,239,61.52,2.8,2.8,0,0,1,240.89,62.14Z"/>
        <path class="cls-2" d="M257.74,61.64l-2.17.63A2.64,2.64,0,0,0,252.71,60c-1.75,0-2.64.58-2.68,1.75-.17.83.81,1.43,2.92,1.8q5.3,1,5.17,4.17c-.13,2.4-1.81,3.65-5,3.73s-5.14-1.2-5.72-4l2.11-.62c.21,1.9,1.39,2.82,3.55,2.73,1.9,0,2.86-.64,2.86-1.92.16-1-.91-1.66-3.24-2.12-3.36-.66-5-1.93-4.85-3.79.13-2.33,1.74-3.53,4.85-3.61Q256.87,58.16,257.74,61.64Z"/>
        <path class="cls-2" d="M264.68,69.73l.37,1.31a6.77,6.77,0,0,1-1.74.37c-1.53,0-2.28-.73-2.24-2.3V63.39h-1.3V61.71h1.3V59.34l2-1,.07,3.36h1.67l-.06,1.68h-1.61v5.66c-.05.62.14.89.56.81A4.2,4.2,0,0,0,264.68,69.73Z"/>
        <path class="cls-2" d="M272.92,61.71h2v9.51h-2v-1a3.31,3.31,0,0,1-2.67,1.18q-3.62.06-3.49-3.55V61.71h2.06v6c-.05,1.45.53,2.15,1.74,2.11a2.25,2.25,0,0,0,2.36-2.17Z"/>
        <path class="cls-2" d="M283.9,58.35H286V71.29H283.9V70.23a3,3,0,0,1-2.67,1.24c-2.62,0-3.92-1.66-3.92-4.85q0-5.1,4.16-5.1a3.13,3.13,0,0,1,2.43,1.24Zm0,8.71V65.81c0-1.62-.79-2.45-2.24-2.49s-2.3,1.06-2.3,3.3.72,3.28,2.3,3.24S283.9,68.92,283.9,67.06Z"/>
        <path class="cls-2" d="M295.38,68.05l2.11.56q-.87,2.92-4.41,2.86-4.54-.18-4.73-4.85c.12-3.23,1.68-4.94,4.66-5.1,2.95.08,4.46,1.8,4.55,5.16v.56h-7A2.51,2.51,0,0,0,293,69.79,2.11,2.11,0,0,0,295.38,68.05ZM293,63.39a2.35,2.35,0,0,0-2.36,2.11h4.67A2.16,2.16,0,0,0,293,63.39Z"/>
        <path class="cls-2" d="M308.1,65.19v6h-2.05V65.38c0-1.41-.56-2.12-1.68-2.12a2.29,2.29,0,0,0-2.43,2.18v5.78h-2V61.71h2v1.18a3,3,0,0,1,2.67-1.37Q308.22,61.4,308.1,65.19Z"/>
        <path class="cls-2" d="M315,69.73l.37,1.31a6.77,6.77,0,0,1-1.74.37c-1.53,0-2.28-.73-2.24-2.3V63.39h-1.3V61.71h1.3V59.34l2-1,.07,3.36h1.68L315,63.39h-1.61v5.66c-.05.62.14.89.56.81A4.2,4.2,0,0,0,315,69.73Z"/>
        <path class="cls-2" d="M322.31,58.35h2.18V69.42H331v1.8h-8.65Z"/>
        <path class="cls-2" d="M339.76,68.05l2.11.56q-.87,2.92-4.41,2.86-4.54-.18-4.73-4.85c.12-3.23,1.68-4.94,4.66-5.1,2.95.08,4.46,1.8,4.55,5.16v.56h-7a2.51,2.51,0,0,0,2.48,2.55A2.11,2.11,0,0,0,339.76,68.05Zm-2.37-4.66A2.35,2.35,0,0,0,335,65.5h4.67A2.16,2.16,0,0,0,337.39,63.39Z"/>
        <path class="cls-2" d="M353.29,71.22h-2.05a1.49,1.49,0,0,1-.56-1.18,4,4,0,0,1-3.36,1.37q-3.3-.06-3.43-2.67c.05-1.87,1.27-2.93,3.68-3.18,1.7-.16,2.65-.37,2.86-.62.12-1.2-.5-1.76-1.87-1.68q-2.18-.12-2.43,1.62l-2-.56c.46-2,1.95-2.95,4.48-2.86s3.9,1.2,3.86,3.73V68.8A3.27,3.27,0,0,0,353.29,71.22Zm-2.86-3.79v-.87a4.25,4.25,0,0,1-2.43.74c-1.41.13-2.07.59-2,1.37s.5,1,1.62,1C349.37,69.54,350.3,68.8,350.43,67.43Z"/>
        <path class="cls-2" d="M361.28,62.14,360.41,64a1.92,1.92,0,0,0-1.31-.44c-1.12,0-1.66.83-1.61,2.61v5.1h-2.06V61.71h2.06v1.36a2.07,2.07,0,0,1,1.86-1.55A2.8,2.8,0,0,1,361.28,62.14Z"/>
        <path class="cls-2" d="M371.2,65.19v6h-2.05V65.38c0-1.41-.56-2.12-1.68-2.12A2.31,2.31,0,0,0,365,65.44v5.78h-2V61.71h2v1.18a3,3,0,0,1,2.68-1.37C370.12,61.44,371.29,62.66,371.2,65.19Z"/>
        <path class="cls-2" d="M374.16,58.35h2v2.3h-2Zm0,3.36h2v9.51h-2Z"/>
        <path class="cls-2" d="M387.19,65.19v6h-2.05V65.38c0-1.41-.56-2.12-1.68-2.12A2.29,2.29,0,0,0,381,65.44v5.78h-2V61.71h2v1.18a3,3,0,0,1,2.67-1.37Q387.32,61.4,387.19,65.19Z"/>
        <path class="cls-2" d="M396.3,61.77h2.05v8.09c.13,3-1.43,4.43-4.66,4.35A4.83,4.83,0,0,1,390,72.84l1.06-1.18a4.82,4.82,0,0,0,2.55.81c1.9.08,2.8-.75,2.67-2.49A3.15,3.15,0,0,1,393.56,71c-2.57-.13-3.92-1.66-4-4.61.12-3.11,1.53-4.72,4.23-4.85A2.86,2.86,0,0,1,396.3,63Zm0,5.1V65.5a2.13,2.13,0,0,0-2.18-2.18c-1.65,0-2.51,1.08-2.55,3.11s.83,2.91,2.37,3S396.3,68.57,396.3,66.87Z"/>
        <path class="cls-2" d="M415.15,71.22h-2a1.49,1.49,0,0,1-.56-1.18,4,4,0,0,1-3.36,1.37q-3.3-.06-3.43-2.67.08-2.8,3.67-3.18c1.71-.16,2.66-.37,2.87-.62.12-1.2-.5-1.76-1.87-1.68q-2.18-.12-2.43,1.62l-2-.56c.46-2,1.95-2.95,4.48-2.86s3.9,1.2,3.86,3.73V68.8A3.27,3.27,0,0,0,415.15,71.22Zm-2.86-3.79v-.87a4.28,4.28,0,0,1-2.43.74c-1.41.13-2.07.59-2,1.37s.5,1,1.62,1C411.23,69.54,412.16,68.8,412.29,67.43Z"/>
        <path class="cls-2" d="M425.44,65.19v6h-2.05V65.38c0-1.41-.56-2.12-1.68-2.12a2.31,2.31,0,0,0-2.43,2.18v5.78h-2V61.71h2v1.18A3,3,0,0,1,422,61.52Q425.58,61.4,425.44,65.19Z"/>
        <path class="cls-2" d="M434.37,58.35h2.05V71.29h-2.05V70.23a3,3,0,0,1-2.68,1.24q-3.92-.06-3.92-4.85,0-5.1,4.17-5.1a3.13,3.13,0,0,1,2.43,1.24Zm0,8.71V65.81c0-1.62-.79-2.45-2.24-2.49s-2.3,1.06-2.3,3.3.72,3.28,2.3,3.24S434.37,68.92,434.37,67.06Z"/>
        <path class="cls-2" d="M449.24,71.16h-4.67V58.28h4.79q6.28.07,6.35,6.47Q455.89,71.35,449.24,71.16Zm.06-10.95h-2.62v9.21h2.56q4.35.06,4.29-4.6T449.3,60.21Z"/>
        <path class="cls-2" d="M464.88,68.05l2.11.56q-.87,2.92-4.41,2.86-4.54-.18-4.73-4.85c.12-3.23,1.68-4.94,4.67-5.1q4.41.12,4.54,5.16v.56h-7a2.51,2.51,0,0,0,2.49,2.55A2.1,2.1,0,0,0,464.88,68.05Zm-2.36-4.66a2.36,2.36,0,0,0-2.37,2.11h4.67A2.15,2.15,0,0,0,462.52,63.39Z"/>
        <path class="cls-2" d="M475.73,61.71H478l-3.92,9.51h-1.86l-3.61-9.51h2.24c1,3.11,1.7,5.28,2.12,6.53a3.25,3.25,0,0,1,.18,1h.06a.87.87,0,0,1,.07-.25l.18-.74C473.85,67,474.61,64.82,475.73,61.71Z"/>
        <path class="cls-2" d="M486.4,68.05l2.12.56c-.58,2-2.06,2.9-4.42,2.86-3-.12-4.6-1.74-4.73-4.85.13-3.23,1.68-4.94,4.67-5.1,2.94.08,4.46,1.8,4.54,5.16v.56h-7A2.52,2.52,0,0,0,484,69.79,2.1,2.1,0,0,0,486.4,68.05ZM484,63.39a2.36,2.36,0,0,0-2.37,2.11h4.67A2.15,2.15,0,0,0,484,63.39Z"/>
        <path class="cls-2" d="M491,58.35H493V71.22H491Z"/>
        <path class="cls-2" d="M500.15,61.52q4.29.18,4.48,5-.06,4.84-4.67,5c-2.9-.16-4.44-1.76-4.6-4.79Q495.48,61.64,500.15,61.52ZM500,69.86q2.37-.08,2.43-3.3T500,63.26c-1.65,0-2.51,1.16-2.55,3.36S498.37,69.77,500,69.86Z"/>
        <path class="cls-2" d="M509.07,74.4H507V61.71h2.05v1.18a3,3,0,0,1,2.68-1.37q3.79.18,3.92,5c0,3.36-1.33,5-4.11,5a3.11,3.11,0,0,1-2.49-1.18Zm0-8.4v1.3c.05,1.62.81,2.45,2.31,2.49s2.28-1.05,2.24-3.29-.77-3.24-2.31-3.24S509.07,64.17,509.07,66Z"/>
        <path class="cls-2" d="M531.13,65.19v6h-2.06V65.38c0-1.46-.45-2.14-1.49-2.06a2,2,0,0,0-2,2.12v5.78h-2.05V65.38c0-1.46-.46-2.14-1.5-2.06a2.06,2.06,0,0,0-2,2.06v5.84h-2V61.77h2v1.06a2.65,2.65,0,0,1,2.18-1.31,3.15,3.15,0,0,1,3,1.55,2.91,2.91,0,0,1,2.49-1.55Q531.13,61.46,531.13,65.19Z"/>
        <path class="cls-2" d="M540.49,68.05l2.11.56q-.87,2.92-4.41,2.86-4.55-.18-4.73-4.85c.12-3.23,1.68-4.94,4.67-5.1q4.41.12,4.54,5.16v.56h-7a2.51,2.51,0,0,0,2.49,2.55A2.1,2.1,0,0,0,540.49,68.05Zm-2.36-4.66a2.36,2.36,0,0,0-2.37,2.11h4.67A2.15,2.15,0,0,0,538.13,63.39Z"/>
        <path class="cls-2" d="M553.21,65.19v6h-2.05V65.38c0-1.41-.56-2.12-1.68-2.12a2.29,2.29,0,0,0-2.43,2.18v5.78h-2V61.71h2v1.18a3,3,0,0,1,2.68-1.37Q553.33,61.4,553.21,65.19Z"/>
        <path class="cls-2" d="M560.08,69.73l.38,1.31a6.84,6.84,0,0,1-1.75.37c-1.53,0-2.28-.73-2.24-2.3V63.39h-1.3V61.71h1.3V59.34l2-1,.06,3.36h1.68l-.07,1.68h-1.61v5.66c0,.62.14.89.56.81A4.2,4.2,0,0,0,560.08,69.73Z"/>
        <path class="cls-2" d="M576,58.35h2.11v7.46c.13,3.9-1.68,5.77-5.41,5.6q-5.36.2-5.23-5.6V58.35h2.12v7.46c0,2.61,1,3.88,3.11,3.8q3.42.12,3.3-3.8Z"/>
        <path class="cls-2" d="M591.34,61.64l-2.18.63A2.63,2.63,0,0,0,586.3,60c-1.74,0-2.63.58-2.67,1.75-.17.83.8,1.43,2.92,1.8q5.3,1,5.16,4.17c-.12,2.4-1.8,3.65-5,3.73s-5.14-1.2-5.72-4l2.12-.62c.2,1.9,1.39,2.82,3.54,2.73,1.91,0,2.86-.64,2.86-1.92.17-1-.91-1.66-3.23-2.12-3.36-.66-5-1.93-4.85-3.79q.18-3.49,4.85-3.61Q590.47,58.16,591.34,61.64Z"/>
        <path class="cls-2" d="M604.31,60.21H600v11H597.9v-11h-4.35V58.35h10.76Z"/>
        <path class="cls-2" d="M612.49,71.22h-5.85V58.35h5.54q4.11.18,4.35,3.36a2.91,2.91,0,0,1-1.61,2.67,3.34,3.34,0,0,1,2.17,3.17Q617.09,71.22,612.49,71.22Zm-3.8-11v3.42h3.18q2.42-.06,2.49-1.8-.14-1.56-2.43-1.62Zm3.43,5.29h-3.43v3.92h3.61c1.74,0,2.62-.66,2.62-2S613.9,65.54,612.12,65.5Z"/>
      </g>
    </g>
  </g>
</svg>